<svg xmlns="http://www.w3.org/2000/svg" width="256" height="256" viewBox="0 0 256 256"><linearGradient id="a" gradientUnits="userSpaceOnUse" x1="264.572" y1="-180.086" x2="316.09" y2="112.087" gradientTransform="matrix(1 0 0 -1 -162 95)"><stop offset="0" stop-color="#4CA6CF"/><stop offset=".17" stop-color="#3F97BF"/><stop offset=".445" stop-color="#2E84AB"/><stop offset=".722" stop-color="#24799F"/><stop offset="1" stop-color="#21759B"/></linearGradient><path fill="url(#a)" d="M0 1h256.66v256H0z"/><path d="M38.9 35.773c4.13 0 7.114.63 8.95 1.89 1.865 1.244 2.798 3.238 2.798 5.98 0 1.852-.407 3.375-1.22 4.57s-1.898 1.915-3.254 2.154v.215c1.834.43 3.166 1.252 3.996 2.464.813 1.196 1.22 2.8 1.22 4.81 0 2.84-.957 5.048-2.87 6.627-1.9 1.595-4.5 2.393-7.8 2.393H29.854V35.773H38.9zm.694 12.322c1.66 0 2.863-.28 3.613-.837.75-.56 1.125-1.476 1.125-2.752 0-1.18-.407-2.034-1.22-2.56-.83-.51-2.115-.766-3.853-.766H36v6.915h3.59zm-3.59 13.327h4.02c1.708 0 2.96-.343 3.758-1.03.813-.685 1.22-1.753 1.22-3.206 0-2.568-1.723-3.852-5.168-3.852h-3.828v8.088z"/><path d="M112.012 40.558h-5.096l-6.7 21.534h5.073l-1.49 4.785H87.65l1.484-4.785h5.12l6.7-21.534H95.86l1.484-4.785h16.15l-1.483 4.785z"/><path d="M156.532 63.815l9.906-9.93c.48 1.69.49 3.438.036 5.24-.455 1.803-1.337 3.358-2.645 4.666l-3.64 3.67c-2.03 2.01-4.46 3.02-7.3 3.02s-5.27-1-7.3-3.01c-2.01-2.01-3.02-4.44-3.02-7.29s1-5.28 3.01-7.29l3.66-3.64c1.31-1.3 2.86-2.19 4.66-2.64 1.8-.45 3.55-.45 5.24.01l-9.91 9.93c-1.02 1.01-1.53 2.22-1.53 3.64s.51 2.64 1.53 3.66c1 1.01 2.22 1.51 3.64 1.51s2.63-.5 3.64-1.51zm1.82-5.48l12.776-12.776c.494-.5.742-1.11.742-1.82s-.248-1.33-.742-1.82c-.542-.51-1.165-.76-1.866-.74-.702.01-1.3.26-1.795.74L154.714 54.7c-.494.495-.74 1.1-.74 1.818s.246 1.324.74 1.82c.542.51 1.164.757 1.866.74s1.292-.264 1.77-.742zm21.892-25.53c2.01 2.027 3.015 4.46 3.015 7.3 0 2.838-1.01 5.27-3.02 7.297l-3.66 3.637c-1.31 1.3-2.87 2.18-4.67 2.64-1.81.45-3.55.44-5.24-.04l6.27-6.25 1.81-1.85 1.82-1.82c1-1.01 1.51-2.22 1.51-3.64s-.51-2.63-1.51-3.64c-1.01-1.02-2.22-1.53-3.64-1.53s-2.63.51-3.64 1.53l-1.85 1.82-8.09 8.08c-.47-1.69-.47-3.44-.02-5.24.45-1.8 1.33-3.36 2.64-4.67l3.63-3.66c2.03-2.01 4.467-3.02 7.31-3.02 2.85 0 5.28 1.005 7.29 3.015z"/><path d="M208.517 30.987l14.356 19.142-19.143-14.36 4.788-4.79zm-4.786 14.356l19.15 4.786-19.14-9.58v4.78zm13.95 17.252c-1 1.02-2.21 1.53-3.63 1.53s-2.63-.51-3.63-1.53c-1.02-1.005-1.53-2.217-1.53-3.637s.51-2.632 1.53-3.637l3.64-3.66 1.65-1.53-5.62-1.77-3.32 3.3c-2.01 2.01-3.01 4.45-3.01 7.3s1.01 5.29 3.02 7.3c2.03 2.01 4.46 3.02 7.3 3.02s5.27-1 7.3-3.01l3.31-3.32-1.77-5.62-1.53 1.65-3.66 3.64zm.41-31.608l4.79 19.142-9.57-19.15h4.79zm16.02-2.392c-2.84 0-5.28 1.005-7.31 3.015l-3.63 3.66c-.73.703-1.35 1.556-1.84 2.56l1.56 5.12 3.93-4.042 1.82-1.818 1.85-1.818c1.01-1.02 2.22-1.532 3.64-1.532s2.63.51 3.64 1.532c1.006 1.005 1.51 2.217 1.51 3.637s-.504 2.63-1.51 3.63l-1.82 1.82-1.82 1.84-4.04 3.92 5.1 1.55c1.006-.5 1.867-1.11 2.585-1.84l3.66-3.64c2.01-2.03 3.015-4.46 3.015-7.3s-1.01-5.28-3.02-7.3c-2.01-2.01-4.44-3.02-7.29-3.02zm3.13 40.676l-14.36-19.14 19.14 14.36-4.78 4.79zm-9.57 0l-4.78-19.14 9.57 19.14h-4.78zm14.36-14.35l-19.14-4.78 19.15 9.57v-4.79z"/><path d="M31.195 99.322c-.702.702-1.547 1.053-2.536 1.053-.99 0-1.84-.35-2.54-1.053-.7-.702-1.06-1.547-1.06-2.536 0-.99.35-1.834 1.05-2.536.7-.702 1.54-1.053 2.53-1.053.99 0 1.83.35 2.53 1.053.7.702 1.05 1.547 1.05 2.536 0 .99-.35 1.835-1.06 2.536zm0 11.964c-.702.702-1.547 1.053-2.536 1.053-.99 0-1.84-.36-2.54-1.06-.7-.7-1.06-1.55-1.06-2.54s.35-1.84 1.05-2.54c.7-.7 1.54-1.06 2.53-1.06.99 0 1.83.35 2.53 1.05.7.7 1.05 1.54 1.05 2.53 0 .99-.35 1.83-1.06 2.54zm0 11.963c-.702.7-1.547 1.05-2.536 1.05-.99 0-1.84-.35-2.54-1.06s-1.06-1.55-1.06-2.54.35-1.84 1.05-2.54c.7-.7 1.54-1.06 2.53-1.06.99 0 1.83.35 2.53 1.05.7.7 1.05 1.55 1.05 2.54s-.35 1.83-1.06 2.53zm3.446-27.66h21.54v2.39H34.64v-2.39zm0 11.96h21.54v2.39H34.64v-2.4zm0 11.96h21.54v2.39H34.64v-2.4z"/><path d="M86.243 112.22v-1.39l2.37-2.392c.75-.78 1.21-1.276 1.387-1.483.19-.27.343-.534.455-.79.096-.24.144-.48.144-.718 0-.383-.11-.67-.32-.86-.19-.177-.47-.264-.84-.264-.39 0-.74.08-1.08.24-.34.174-.7.414-1.08.717l-1.08-1.292c.43-.367.81-.646 1.14-.838.4-.19.73-.31 1-.36.35-.095.75-.143 1.22-.143.55 0 1.07.112 1.55.335.48.224.83.52 1.05.886.26.367.383.813.383 1.34 0 .447-.08.854-.24 1.22-.143.367-.38.758-.717 1.172-.22.303-.78.87-1.67 1.7l-1.22 1.147v.096h4.114v1.675h-6.6zm5.91 6.34c-.4.447-.917.742-1.555.885v.048c.78.096 1.372.335 1.77.718.416.39.623.9.623 1.54 0 .94-.34 1.68-1.02 2.2-.67.53-1.64.79-2.92.79-1.08 0-2.02-.17-2.82-.52v-1.77c.43.21.85.37 1.25.48.48.13.94.19 1.37.19.67 0 1.17-.12 1.51-.35.32-.24.48-.61.48-1.12 0-.46-.18-.79-.55-.98-.38-.19-.98-.29-1.79-.29h-.74v-1.58h.74c.77 0 1.33-.09 1.68-.28.35-.19.53-.53.53-1.03 0-.73-.46-1.1-1.38-1.1-.33 0-.66.06-.98.17-.3.08-.67.27-1.1.55l-.952-1.43c.876-.64 1.937-.96 3.18-.96 1.005 0 1.8.21 2.39.624.59.4.887.97.887 1.7 0 .59-.182 1.11-.55 1.56zm-3.158-18.185V93.94l.048-1.006c-.287.287-.526.51-.718.67l-1.1.885-.958-1.22 3.086-2.47h1.65v9.57h-2.008zm6.795-2.393h21.534V95.59H95.79v2.392zm0 11.964h21.534v-2.393H95.79v2.393zm0 11.963h21.534v-2.4H95.79v2.39z"/><path d="M146.77 110.544v-5.98h26.92v5.98h-26.92z"/><path d="M215.91 99.13c-1.595 1.708-2.393 4.204-2.393 7.49 0 3.015.534 5.583 1.604 7.704.48.99 1.16 1.883 2.04 2.68.88.798 1.99 1.635 3.33 2.512v4.785h-14.36v-4.78h8.76c-2.36-1.69-4.03-3.57-5.02-5.64-1.16-2.42-1.74-5.08-1.74-7.96 0-4.21 1.32-7.56 3.95-10.05 2.63-2.5 6.24-3.75 10.82-3.75 4.57 0 8.17 1.24 10.82 3.71 2.63 2.47 3.95 5.84 3.95 10.1 0 2.9-.59 5.58-1.77 8.02-1.05 2.13-2.74 3.99-5.07 5.6h8.83v4.79H225.3v-4.78c1.276-.81 2.35-1.61 3.22-2.4.87-.79 1.565-1.676 2.09-2.665 1.1-2.155 1.65-4.76 1.65-7.826 0-3.27-.796-5.766-2.39-7.49-1.61-1.72-3.934-2.58-6.964-2.58-3.06 0-5.386.86-6.965 2.585z"/><path d="M49.69 152.033l2.633 2.655c.973.958 1.46 2.13 1.46 3.518v5.072c0 1.388-.487 2.56-1.46 3.518L36.46 182.66c-.957.973-2.13 1.46-3.517 1.46-1.388 0-2.56-.487-3.518-1.46l-2.656-2.633-2.64-2.656c-.98-.95-1.46-2.12-1.46-3.51v-5.07c0-1.39.48-2.57 1.46-3.54L40 149.4c.957-.972 2.13-1.46 3.518-1.46 1.372 0 2.544.488 3.517 1.46l2.656 2.633zm-14.857 23.21l15.36-15.362c.463-.46.695-1.02.695-1.69s-.23-1.24-.694-1.72l-5.12-5.12c-.463-.46-1.037-.69-1.723-.69-.67 0-1.23.23-1.69.7L26.3 166.71c-.463.48-.694 1.052-.694 1.722s.23 1.236.694 1.7l5.12 5.12c.463.46 1.033.69 1.71.69s1.248-.23 1.71-.69z"/><path d="M113.615 150.62h3.71c.653 0 1.215.236 1.686.707s.71 1.033.71 1.687v28.713c0 .67-.23 1.236-.7 1.698-.47.463-1.03.694-1.68.694h-33.5c-.65 0-1.21-.24-1.68-.7-.47-.46-.7-1.03-.7-1.7v-28.71c0-.66.24-1.22.71-1.69s1.04-.71 1.69-.71h3.71l-1.31 1.51v5.67h28.71v-5.67l-1.31-1.51zm-7.345-4.784l6.27 7.178v2.393H88.61v-2.393l6.317-7.178h11.34zm3.876 21.534v-4.785H91.004v4.785h7.178v11.964h4.785V167.37h7.18zm-11.258-15.05c.47.463 1.033.693 1.687.693.654 0 1.216-.23 1.687-.693.47-.463.706-1.03.706-1.7 0-.652-.235-1.215-.706-1.686-.47-.47-1.033-.706-1.687-.706-.654 0-1.216.235-1.687.706-.47.47-.706 1.033-.706 1.687 0 .67.236 1.24.706 1.7z"/><path d="M179.023 165.217c1.26 2.967 1.89 6.077 1.89 9.33 0 3.256-.63 6.366-1.89 9.333l-6.65-2.8c.876-2.105 1.315-4.283 1.315-6.532 0-2.265-.44-4.434-1.316-6.508-.83-1.994-2.026-3.772-3.59-5.336-1.547-1.547-3.317-2.743-5.31-3.59-2.106-.876-4.284-1.314-6.533-1.314v7.178l-14.36-10.768 14.35-10.767v7.13c3.25 0 6.36.63 9.33 1.89 2.9 1.23 5.44 2.943 7.61 5.146 2.2 2.16 3.91 4.7 5.14 7.6z"/><path d="M205.574 165.217c1.228-2.903 2.942-5.44 5.145-7.608 2.16-2.21 4.7-3.92 7.6-5.15 2.96-1.26 6.07-1.89 9.33-1.89v-7.13L242 154.2l-14.356 10.765v-7.17c-2.25 0-4.426.437-6.53 1.314-1.98.84-3.75 2.04-5.314 3.59-1.56 1.56-2.76 3.34-3.59 5.33-.874 2.07-1.312 4.24-1.312 6.5 0 2.25.438 4.42 1.315 6.53l-6.65 2.8c-1.26-2.97-1.89-6.08-1.89-9.34s.63-6.37 1.89-9.33z"/><path d="M47.825 236.914c-2.568 1.49-5.368 2.237-8.398 2.237-2.28 0-4.455-.44-6.52-1.32-2.066-.88-3.844-2.07-5.335-3.56-1.492-1.49-2.68-3.27-3.565-5.33-.885-2.06-1.328-4.24-1.328-6.52s.44-4.45 1.32-6.52 2.07-3.84 3.56-5.33c1.49-1.49 3.27-2.68 5.33-3.56 2.06-.88 4.24-1.33 6.52-1.33 3.03 0 5.83.75 8.4 2.24 2.57 1.49 4.6 3.53 6.1 6.1s2.25 5.38 2.25 8.41c0 3.03-.75 5.84-2.25 8.41s-3.53 4.61-6.1 6.1zM41.1 225.106c0-.56.12-1.014.36-1.364.255-.367.82-.87 1.7-1.508 1.34-.973 2.225-1.818 2.655-2.536.462-.718.694-1.603.694-2.655 0-1.547-.57-2.783-1.7-3.71-1.15-.924-2.68-1.387-4.6-1.387-2.33 0-4.54.59-6.63 1.77l1.53 3.064c1.78-.91 3.38-1.363 4.78-1.363.81 0 1.44.15 1.89.454.44.34.67.8.67 1.39 0 .58-.16 1.07-.48 1.49-.32.45-.97 1.02-1.94 1.7-1.06.8-1.76 1.51-2.11 2.13-.39.67-.58 1.46-.58 2.35v1.03h3.73v-.83zm-1.698 8.015c.766 0 1.364-.21 1.794-.64.43-.4.646-.97.646-1.72 0-.76-.215-1.35-.646-1.77-.447-.41-1.045-.62-1.794-.62-.813 0-1.428.2-1.842.6-.415.4-.622 1-.622 1.8 0 .75.215 1.33.646 1.75.446.42 1.053.63 1.818.63z"/><path d="M91.004 205.653l-2.99 2.99 5.383 8.974-8.973-5.384-2.99 2.99v-9.57h9.57zm-9.57 23.927l2.99 2.99 8.974-5.383-5.384 8.973 2.99 2.99h-9.57v-9.57zm11.963-2.392v-9.57h14.356v9.57H93.397zm16.75-21.535h9.57v9.57l-2.99-2.99-8.974 5.384 5.383-8.973-2.99-2.99zm0 33.498l2.99-2.99-5.383-8.97 8.973 5.39 2.99-2.99v9.57h-9.57z"/><linearGradient id="b" gradientUnits="userSpaceOnUse" x1="27.855" y1="49.325" x2="49.39" y2="49.325"><stop offset="0" stop-color="#4CA6CF"/><stop offset=".17" stop-color="#3F97BF"/><stop offset=".445" stop-color="#2E84AB"/><stop offset=".722" stop-color="#24799F"/><stop offset="1" stop-color="#21759B"/></linearGradient><path fill="url(#b)" d="M36.9 33.773c4.13 0 7.114.63 8.95 1.89 1.865 1.244 2.798 3.238 2.798 5.98 0 1.852-.407 3.375-1.22 4.57s-1.898 1.915-3.254 2.154v.215c1.834.43 3.166 1.252 3.996 2.464.813 1.196 1.22 2.8 1.22 4.81 0 2.84-.957 5.048-2.87 6.627-1.9 1.595-4.5 2.393-7.8 2.393H27.854V33.773H36.9zm.694 12.322c1.66 0 2.863-.28 3.613-.837.75-.56 1.125-1.476 1.125-2.752 0-1.18-.407-2.034-1.22-2.56-.83-.51-2.115-.766-3.853-.766H34v6.915h3.59zm-3.59 13.327h4.02c1.708 0 2.96-.343 3.758-1.03.813-.685 1.22-1.753 1.22-3.206 0-2.568-1.723-3.852-5.168-3.852h-3.828v8.088z"/><linearGradient id="c" gradientUnits="userSpaceOnUse" x1="85.655" y1="49.325" x2="111.496" y2="49.325"><stop offset="0" stop-color="#4CA6CF"/><stop offset=".17" stop-color="#3F97BF"/><stop offset=".445" stop-color="#2E84AB"/><stop offset=".722" stop-color="#24799F"/><stop offset="1" stop-color="#21759B"/></linearGradient><path fill="url(#c)" d="M110.012 38.558h-5.096l-6.7 21.534h5.073l-1.49 4.785H85.65l1.484-4.785h5.12l6.7-21.534H93.86l1.484-4.785h16.15l-1.483 4.785z"/><linearGradient id="d" gradientUnits="userSpaceOnUse" x1="140.583" y1="48.129" x2="181.259" y2="48.129"><stop offset="0" stop-color="#4CA6CF"/><stop offset=".17" stop-color="#3F97BF"/><stop offset=".445" stop-color="#2E84AB"/><stop offset=".722" stop-color="#24799F"/><stop offset="1" stop-color="#21759B"/></linearGradient><path fill="url(#d)" d="M154.532 61.815l9.906-9.93c.48 1.69.49 3.438.036 5.24-.455 1.803-1.337 3.358-2.645 4.666l-3.64 3.67c-2.03 2.01-4.46 3.02-7.3 3.02s-5.27-1-7.3-3.01c-2.01-2.01-3.02-4.44-3.02-7.29s1-5.28 3.01-7.29l3.66-3.64c1.31-1.3 2.86-2.19 4.66-2.64 1.8-.45 3.55-.45 5.24.01l-9.91 9.93c-1.02 1.01-1.53 2.22-1.53 3.64s.51 2.64 1.53 3.66c1 1.01 2.22 1.51 3.64 1.51s2.63-.5 3.64-1.51zm1.82-5.48l12.776-12.776c.494-.5.742-1.11.742-1.82s-.248-1.33-.742-1.82c-.542-.51-1.165-.76-1.866-.74-.702.01-1.3.26-1.795.74L152.714 52.7c-.494.495-.74 1.1-.74 1.818s.246 1.324.74 1.82c.542.51 1.164.757 1.866.74s1.292-.264 1.77-.742zm21.892-25.53c2.01 2.027 3.015 4.46 3.015 7.3 0 2.838-1.01 5.27-3.02 7.297l-3.66 3.637c-1.31 1.3-2.87 2.18-4.67 2.64-1.81.45-3.55.44-5.24-.04l6.27-6.25 1.81-1.85 1.82-1.82c1-1.01 1.51-2.22 1.51-3.64s-.51-2.63-1.51-3.64c-1.01-1.02-2.22-1.53-3.64-1.53s-2.63.51-3.64 1.53l-1.85 1.82-8.09 8.08c-.47-1.69-.47-3.44-.02-5.24.45-1.8 1.33-3.36 2.64-4.67l3.63-3.66c2.03-2.01 4.467-3.02 7.31-3.02 2.85 0 5.28 1.005 7.29 3.015z"/><linearGradient id="e" gradientUnits="userSpaceOnUse" x1="201.731" y1="46.933" x2="242.407" y2="46.933"><stop offset="0" stop-color="#4CA6CF"/><stop offset=".17" stop-color="#3F97BF"/><stop offset=".445" stop-color="#2E84AB"/><stop offset=".722" stop-color="#24799F"/><stop offset="1" stop-color="#21759B"/></linearGradient><path fill="url(#e)" d="M206.517 28.987l14.356 19.142-19.143-14.36 4.788-4.79zm-4.786 14.356l19.15 4.786-19.14-9.58v4.78zm13.95 17.252c-1 1.02-2.21 1.53-3.63 1.53s-2.63-.51-3.63-1.53c-1.02-1.005-1.53-2.217-1.53-3.637s.51-2.632 1.53-3.637l3.64-3.66 1.65-1.53-5.62-1.77-3.32 3.3c-2.01 2.01-3.01 4.45-3.01 7.3s1.01 5.29 3.02 7.3c2.03 2.01 4.46 3.02 7.3 3.02s5.27-1 7.3-3.01l3.31-3.32-1.77-5.62-1.53 1.65-3.66 3.64zm.41-31.608l4.79 19.142-9.57-19.15h4.79zm16.02-2.392c-2.84 0-5.28 1.005-7.31 3.015l-3.63 3.66c-.73.703-1.35 1.556-1.84 2.56l1.56 5.12 3.93-4.042 1.82-1.818 1.85-1.818c1.01-1.02 2.22-1.532 3.64-1.532s2.63.51 3.64 1.532c1.006 1.005 1.51 2.217 1.51 3.637s-.504 2.63-1.51 3.63l-1.82 1.82-1.82 1.84-4.04 3.92 5.1 1.55c1.006-.5 1.867-1.11 2.585-1.84l3.66-3.64c2.01-2.03 3.015-4.46 3.015-7.3s-1.01-5.28-3.02-7.3c-2.01-2.01-4.44-3.02-7.29-3.02zm3.13 40.676l-14.36-19.14 19.14 14.36-4.78 4.79zm-9.57 0l-4.78-19.14 9.57 19.14h-4.78zm14.36-14.35l-19.14-4.78 19.15 9.57v-4.79z"/><linearGradient id="f" gradientUnits="userSpaceOnUse" x1="23.07" y1="106.749" x2="54.175" y2="106.749"><stop offset="0" stop-color="#4CA6CF"/><stop offset=".17" stop-color="#3F97BF"/><stop offset=".445" stop-color="#2E84AB"/><stop offset=".722" stop-color="#24799F"/><stop offset="1" stop-color="#21759B"/></linearGradient><path fill="url(#f)" d="M29.195 97.322c-.702.702-1.547 1.053-2.536 1.053-.99 0-1.84-.35-2.54-1.053-.7-.702-1.06-1.547-1.06-2.536 0-.99.35-1.834 1.05-2.536.7-.702 1.54-1.053 2.53-1.053.99 0 1.83.35 2.53 1.053.7.702 1.05 1.547 1.05 2.536 0 .99-.35 1.835-1.06 2.536zm0 11.964c-.702.702-1.547 1.053-2.536 1.053-.99 0-1.84-.36-2.54-1.06-.7-.7-1.06-1.55-1.06-2.54s.35-1.84 1.05-2.54c.7-.7 1.54-1.06 2.53-1.06.99 0 1.83.35 2.53 1.05.7.7 1.05 1.54 1.05 2.53 0 .99-.35 1.83-1.06 2.54zm0 11.963c-.702.7-1.547 1.05-2.536 1.05-.99 0-1.84-.35-2.54-1.06s-1.06-1.55-1.06-2.54.35-1.84 1.05-2.54c.7-.7 1.54-1.06 2.53-1.06.99 0 1.83.35 2.53 1.05.7.7 1.05 1.55 1.05 2.54s-.35 1.83-1.06 2.53zm3.446-27.66h21.54v2.39H32.64v-2.39zm0 11.96h21.54v2.39H32.64v-2.4zm0 11.96h21.54v2.39H32.64v-2.4z"/><linearGradient id="g" gradientUnits="userSpaceOnUse" x1="84.219" y1="105.769" x2="115.324" y2="105.769"><stop offset="0" stop-color="#4CA6CF"/><stop offset=".17" stop-color="#3F97BF"/><stop offset=".445" stop-color="#2E84AB"/><stop offset=".722" stop-color="#24799F"/><stop offset="1" stop-color="#21759B"/></linearGradient><path fill="url(#g)" d="M84.243 110.22v-1.39l2.37-2.392c.75-.78 1.21-1.276 1.387-1.483.19-.27.343-.534.455-.79.096-.24.144-.48.144-.718 0-.383-.11-.67-.32-.86-.19-.177-.47-.264-.84-.264-.39 0-.74.08-1.08.24-.34.174-.7.414-1.08.717l-1.08-1.292c.43-.367.81-.646 1.14-.838.4-.19.73-.31 1-.36.35-.095.75-.143 1.22-.143.55 0 1.07.112 1.55.335.48.224.83.52 1.05.886.26.367.383.813.383 1.34 0 .447-.08.854-.24 1.22-.143.367-.38.758-.717 1.172-.22.303-.78.87-1.67 1.7l-1.22 1.147v.096h4.114v1.675h-6.6zm5.91 6.34c-.4.447-.917.742-1.555.885v.048c.78.096 1.372.335 1.77.718.416.39.623.9.623 1.54 0 .94-.34 1.68-1.02 2.2-.67.53-1.64.79-2.92.79-1.08 0-2.02-.17-2.82-.52v-1.77c.43.21.85.37 1.25.48.48.13.94.19 1.37.19.67 0 1.17-.12 1.51-.35.32-.24.48-.61.48-1.12 0-.46-.18-.79-.55-.98-.38-.19-.98-.29-1.79-.29h-.74v-1.58h.74c.77 0 1.33-.09 1.68-.28.35-.19.53-.53.53-1.03 0-.73-.46-1.1-1.38-1.1-.33 0-.66.06-.98.17-.3.08-.67.27-1.1.55l-.952-1.43c.876-.64 1.937-.96 3.18-.96 1.005 0 1.8.21 2.39.624.59.4.887.97.887 1.7 0 .59-.182 1.11-.55 1.56zm-3.158-18.185V91.94l.048-1.006c-.287.287-.526.51-.718.67l-1.1.885-.958-1.22 3.086-2.47h1.65v9.57h-2.008zm6.795-2.393h21.534V93.59H93.79v2.392zm0 11.964h21.534v-2.393H93.79v2.393zm0 11.963h21.534v-2.4H93.79v2.39z"/><linearGradient id="h" gradientUnits="userSpaceOnUse" x1="144.77" y1="105.553" x2="171.689" y2="105.553"><stop offset="0" stop-color="#4CA6CF"/><stop offset=".17" stop-color="#3F97BF"/><stop offset=".445" stop-color="#2E84AB"/><stop offset=".722" stop-color="#24799F"/><stop offset="1" stop-color="#21759B"/></linearGradient><path fill="url(#h)" d="M144.77 108.544v-5.98h26.92v5.98h-26.92z"/><linearGradient id="i" gradientUnits="userSpaceOnUse" x1="204.124" y1="106.199" x2="237.622" y2="106.199"><stop offset="0" stop-color="#4CA6CF"/><stop offset=".17" stop-color="#3F97BF"/><stop offset=".445" stop-color="#2E84AB"/><stop offset=".722" stop-color="#24799F"/><stop offset="1" stop-color="#21759B"/></linearGradient><path fill="url(#i)" d="M213.91 97.13c-1.595 1.708-2.393 4.204-2.393 7.49 0 3.015.534 5.583 1.604 7.704.48.99 1.16 1.883 2.04 2.68.88.798 1.99 1.635 3.33 2.512v4.785h-14.36v-4.78h8.76c-2.36-1.69-4.03-3.57-5.02-5.64-1.16-2.42-1.74-5.08-1.74-7.96 0-4.21 1.32-7.56 3.95-10.05 2.63-2.5 6.24-3.75 10.82-3.75 4.57 0 8.17 1.24 10.82 3.71 2.63 2.47 3.95 5.84 3.95 10.1 0 2.9-.59 5.58-1.77 8.02-1.05 2.13-2.74 3.99-5.07 5.6h8.83v4.79H223.3v-4.78c1.276-.81 2.35-1.61 3.22-2.4.87-.79 1.565-1.676 2.09-2.665 1.1-2.155 1.65-4.76 1.65-7.826 0-3.27-.796-5.766-2.39-7.49-1.61-1.72-3.934-2.58-6.964-2.58-3.06 0-5.386.86-6.965 2.585z"/><linearGradient id="j" gradientUnits="userSpaceOnUse" x1="20.678" y1="164.03" x2="51.782" y2="164.03"><stop offset="0" stop-color="#4CA6CF"/><stop offset=".17" stop-color="#3F97BF"/><stop offset=".445" stop-color="#2E84AB"/><stop offset=".722" stop-color="#24799F"/><stop offset="1" stop-color="#21759B"/></linearGradient><path fill="url(#j)" d="M47.69 150.033l2.633 2.655c.973.958 1.46 2.13 1.46 3.518v5.072c0 1.388-.487 2.56-1.46 3.518L34.46 180.66c-.957.973-2.13 1.46-3.517 1.46-1.388 0-2.56-.487-3.518-1.46l-2.656-2.633-2.64-2.656c-.98-.95-1.46-2.12-1.46-3.51v-5.07c0-1.39.48-2.57 1.46-3.54L38 147.4c.957-.972 2.13-1.46 3.518-1.46 1.372 0 2.544.488 3.517 1.46l2.656 2.633zm-14.857 23.21l15.36-15.362c.463-.46.695-1.02.695-1.69s-.23-1.24-.694-1.72l-5.12-5.12c-.463-.46-1.037-.69-1.723-.69-.67 0-1.23.23-1.69.7L24.3 164.71c-.463.48-.694 1.052-.694 1.722s.23 1.236.694 1.7l5.12 5.12c.463.46 1.033.69 1.71.69s1.248-.23 1.71-.69z"/><linearGradient id="k" gradientUnits="userSpaceOnUse" x1="79.434" y1="162.977" x2="117.717" y2="162.977"><stop offset="0" stop-color="#4CA6CF"/><stop offset=".17" stop-color="#3F97BF"/><stop offset=".445" stop-color="#2E84AB"/><stop offset=".722" stop-color="#24799F"/><stop offset="1" stop-color="#21759B"/></linearGradient><path fill="url(#k)" d="M111.615 148.62h3.71c.653 0 1.215.236 1.686.707s.71 1.033.71 1.687v28.713c0 .67-.23 1.236-.7 1.698-.47.463-1.03.694-1.68.694h-33.5c-.65 0-1.21-.24-1.68-.7-.47-.46-.7-1.03-.7-1.7v-28.71c0-.66.24-1.22.71-1.69s1.04-.71 1.69-.71h3.71l-1.31 1.51v5.67h28.71v-5.67l-1.31-1.51zm-7.345-4.784l6.27 7.178v2.393H86.61v-2.393l6.317-7.178h11.34zm3.876 21.534v-4.785H89.004v4.785h7.178v11.964h4.785V165.37h7.18zm-11.258-15.05c.47.463 1.033.693 1.687.693.654 0 1.216-.23 1.687-.693.47-.463.706-1.03.706-1.7 0-.652-.235-1.215-.706-1.686-.47-.47-1.033-.706-1.687-.706-.654 0-1.216.235-1.687.706-.47.47-.706 1.033-.706 1.687 0 .67.236 1.24.706 1.7z"/><linearGradient id="l" gradientUnits="userSpaceOnUse" x1="140.583" y1="161.662" x2="178.914" y2="161.662"><stop offset="0" stop-color="#4CA6CF"/><stop offset=".17" stop-color="#3F97BF"/><stop offset=".445" stop-color="#2E84AB"/><stop offset=".722" stop-color="#24799F"/><stop offset="1" stop-color="#21759B"/></linearGradient><path fill="url(#l)" d="M177.023 163.217c1.26 2.967 1.89 6.077 1.89 9.33 0 3.256-.63 6.366-1.89 9.333l-6.65-2.8c.876-2.105 1.315-4.283 1.315-6.532 0-2.265-.44-4.434-1.316-6.508-.83-1.994-2.026-3.772-3.59-5.336-1.547-1.547-3.317-2.743-5.31-3.59-2.106-.876-4.284-1.314-6.533-1.314v7.178l-14.36-10.768 14.35-10.767v7.13c3.25 0 6.36.63 9.33 1.89 2.9 1.23 5.44 2.943 7.61 5.146 2.2 2.16 3.91 4.7 5.14 7.6z"/><linearGradient id="m" gradientUnits="userSpaceOnUse" x1="201.684" y1="161.662" x2="240.015" y2="161.662"><stop offset="0" stop-color="#4CA6CF"/><stop offset=".17" stop-color="#3F97BF"/><stop offset=".445" stop-color="#2E84AB"/><stop offset=".722" stop-color="#24799F"/><stop offset="1" stop-color="#21759B"/></linearGradient><path fill="url(#m)" d="M203.574 163.217c1.228-2.903 2.942-5.44 5.145-7.608 2.16-2.21 4.7-3.92 7.6-5.15 2.96-1.26 6.07-1.89 9.33-1.89v-7.13L240 152.2l-14.356 10.765v-7.17c-2.25 0-4.426.437-6.53 1.314-1.98.84-3.75 2.04-5.314 3.59-1.56 1.56-2.76 3.34-3.59 5.33-.874 2.07-1.312 4.24-1.312 6.5 0 2.25.438 4.42 1.315 6.53l-6.65 2.8c-1.26-2.97-1.89-6.08-1.89-9.34s.63-6.37 1.89-9.33z"/><linearGradient id="n" gradientUnits="userSpaceOnUse" x1="20.678" y1="220.402" x2="54.175" y2="220.402"><stop offset="0" stop-color="#4CA6CF"/><stop offset=".17" stop-color="#3F97BF"/><stop offset=".445" stop-color="#2E84AB"/><stop offset=".722" stop-color="#24799F"/><stop offset="1" stop-color="#21759B"/></linearGradient><path fill="url(#n)" d="M45.825 234.914c-2.568 1.49-5.368 2.237-8.398 2.237-2.28 0-4.455-.44-6.52-1.32-2.066-.88-3.844-2.07-5.335-3.56-1.492-1.49-2.68-3.27-3.565-5.33-.885-2.06-1.328-4.24-1.328-6.52s.44-4.45 1.32-6.52 2.07-3.84 3.56-5.33c1.49-1.49 3.27-2.68 5.33-3.56 2.06-.88 4.24-1.33 6.52-1.33 3.03 0 5.83.75 8.4 2.24 2.57 1.49 4.6 3.53 6.1 6.1s2.25 5.38 2.25 8.41c0 3.03-.75 5.84-2.25 8.41s-3.53 4.61-6.1 6.1zM39.1 223.106c0-.56.12-1.014.36-1.364.255-.367.82-.87 1.7-1.508 1.34-.973 2.225-1.818 2.655-2.536.462-.718.694-1.603.694-2.655 0-1.547-.57-2.783-1.7-3.71-1.15-.924-2.68-1.387-4.6-1.387-2.33 0-4.54.59-6.63 1.77l1.53 3.064c1.78-.91 3.38-1.363 4.78-1.363.81 0 1.44.15 1.89.454.44.34.67.8.67 1.39 0 .58-.16 1.07-.48 1.49-.32.45-.97 1.02-1.94 1.7-1.06.8-1.76 1.51-2.11 2.13-.39.67-.58 1.46-.58 2.35v1.03h3.73v-.83zm-1.698 8.015c.766 0 1.364-.21 1.794-.64.43-.4.646-.97.646-1.72 0-.76-.215-1.35-.646-1.77-.447-.41-1.045-.62-1.794-.62-.813 0-1.428.2-1.842.6-.415.4-.622 1-.622 1.8 0 .75.215 1.33.646 1.75.446.42 1.053.63 1.818.63z"/><linearGradient id="o" gradientUnits="userSpaceOnUse" x1="79.434" y1="220.402" x2="117.717" y2="220.402"><stop offset="0" stop-color="#4CA6CF"/><stop offset=".17" stop-color="#3F97BF"/><stop offset=".445" stop-color="#2E84AB"/><stop offset=".722" stop-color="#24799F"/><stop offset="1" stop-color="#21759B"/></linearGradient><path fill="url(#o)" d="M89.004 203.653l-2.99 2.99 5.383 8.974-8.973-5.384-2.99 2.99v-9.57h9.57zm-9.57 23.927l2.99 2.99 8.974-5.383-5.384 8.973 2.99 2.99h-9.57v-9.57zm11.963-2.392v-9.57h14.356v9.57H91.397zm16.75-21.535h9.57v9.57l-2.99-2.99-8.974 5.384 5.383-8.973-2.99-2.99zm0 33.498l2.99-2.99-5.383-8.97 8.973 5.39 2.99-2.99v9.57h-9.57z"/><g fill="#FFF"><path d="M34.9 31.773c4.13 0 7.114.63 8.95 1.89 1.865 1.244 2.798 3.238 2.798 5.98 0 1.852-.407 3.375-1.22 4.57s-1.898 1.915-3.254 2.154v.215c1.834.43 3.166 1.252 3.996 2.464.813 1.196 1.22 2.8 1.22 4.81 0 2.84-.957 5.048-2.87 6.627-1.9 1.595-4.5 2.393-7.8 2.393H25.854V31.773H34.9zm.694 12.322c1.66 0 2.863-.28 3.613-.837.75-.56 1.125-1.476 1.125-2.752 0-1.18-.407-2.034-1.22-2.56-.83-.51-2.115-.766-3.853-.766H32v6.915h3.59zm-3.59 13.327h4.02c1.708 0 2.96-.343 3.758-1.03.813-.685 1.22-1.753 1.22-3.206 0-2.568-1.723-3.852-5.168-3.852h-3.828v8.088z"/><path d="M108.012 36.558h-5.096l-6.7 21.534h5.073l-1.49 4.785H83.65l1.483-4.785h5.12l6.7-21.534H91.86l1.484-4.785h16.15l-1.483 4.785z"/><path d="M152.532 59.815l9.906-9.93c.48 1.69.49 3.438.036 5.24-.455 1.803-1.337 3.358-2.645 4.666l-3.64 3.67c-2.03 2.01-4.46 3.02-7.3 3.02s-5.27-1-7.3-3.01c-2.01-2.01-3.02-4.44-3.02-7.29s1-5.28 3.01-7.29l3.66-3.64c1.31-1.3 2.86-2.19 4.66-2.64 1.8-.45 3.55-.45 5.24.01l-9.91 9.93c-1.02 1.01-1.53 2.22-1.53 3.64s.51 2.64 1.53 3.66c1 1.01 2.22 1.51 3.64 1.51s2.63-.5 3.64-1.51zm1.82-5.48l12.776-12.776c.494-.5.742-1.11.742-1.82s-.248-1.33-.742-1.82c-.542-.51-1.165-.76-1.866-.74-.702.01-1.3.26-1.795.74L150.714 50.7c-.494.495-.74 1.1-.74 1.818s.246 1.324.74 1.82c.542.51 1.164.757 1.866.74s1.292-.264 1.77-.742zm21.892-25.53c2.01 2.027 3.015 4.46 3.015 7.3 0 2.838-1.01 5.27-3.02 7.297l-3.66 3.637c-1.31 1.3-2.87 2.18-4.67 2.64-1.81.45-3.55.44-5.24-.04l6.27-6.25 1.81-1.85 1.82-1.82c1-1.01 1.51-2.22 1.51-3.64s-.51-2.63-1.51-3.64c-1.01-1.02-2.22-1.53-3.64-1.53s-2.63.51-3.64 1.53l-1.85 1.82-8.09 8.08c-.47-1.69-.47-3.44-.02-5.24.45-1.8 1.33-3.36 2.64-4.67l3.63-3.66c2.03-2.01 4.467-3.02 7.31-3.02 2.85 0 5.28 1.005 7.29 3.015z"/><path d="M204.517 26.987l14.356 19.142-19.143-14.36 4.788-4.79zm-4.786 14.356l19.15 4.786-19.14-9.58v4.78zm13.95 17.252c-1 1.02-2.21 1.53-3.63 1.53s-2.63-.51-3.63-1.53c-1.02-1.005-1.53-2.217-1.53-3.637s.51-2.632 1.53-3.637l3.64-3.66 1.65-1.53-5.62-1.77-3.32 3.3c-2.01 2.01-3.01 4.45-3.01 7.3s1.01 5.29 3.02 7.3c2.03 2.01 4.46 3.02 7.3 3.02s5.27-1 7.3-3.01l3.31-3.32-1.77-5.62-1.53 1.65-3.66 3.64zm.41-31.608l4.79 19.142-9.57-19.15h4.79zm16.02-2.392c-2.84 0-5.28 1.005-7.31 3.015l-3.63 3.66c-.73.703-1.35 1.556-1.84 2.56l1.56 5.12 3.93-4.042 1.82-1.818 1.85-1.818c1.01-1.02 2.22-1.532 3.64-1.532s2.63.51 3.64 1.532c1.006 1.005 1.51 2.217 1.51 3.637s-.504 2.63-1.51 3.63l-1.82 1.82-1.82 1.84-4.04 3.92 5.1 1.55c1.006-.5 1.867-1.11 2.585-1.84l3.66-3.64c2.01-2.03 3.015-4.46 3.015-7.3s-1.01-5.28-3.02-7.3c-2.01-2.01-4.44-3.02-7.29-3.02zm3.13 40.676l-14.36-19.14 19.14 14.36-4.78 4.79zm-9.57 0l-4.78-19.14 9.57 19.14h-4.78zm14.36-14.35l-19.14-4.78 19.15 9.57v-4.79z"/><path d="M27.195 95.322c-.702.702-1.547 1.053-2.536 1.053-.99 0-1.84-.35-2.54-1.053-.7-.702-1.06-1.547-1.06-2.536 0-.99.35-1.834 1.05-2.536.7-.702 1.54-1.053 2.53-1.053.99 0 1.83.35 2.53 1.053.7.702 1.05 1.547 1.05 2.536 0 .99-.35 1.835-1.06 2.536zm0 11.964c-.702.702-1.547 1.053-2.536 1.053-.99 0-1.84-.36-2.54-1.06-.7-.7-1.06-1.55-1.06-2.54s.35-1.84 1.05-2.54c.7-.7 1.54-1.06 2.53-1.06.99 0 1.83.35 2.53 1.05.7.7 1.05 1.54 1.05 2.53 0 .99-.35 1.83-1.06 2.54zm0 11.963c-.702.7-1.547 1.05-2.536 1.05-.99 0-1.84-.35-2.54-1.06s-1.06-1.55-1.06-2.54.35-1.84 1.05-2.54c.7-.7 1.54-1.06 2.53-1.06.99 0 1.83.35 2.53 1.05.7.7 1.05 1.55 1.05 2.54s-.35 1.83-1.06 2.53zm3.446-27.66h21.54v2.39H30.64v-2.39zm0 11.96h21.54v2.39H30.64v-2.4zm0 11.96h21.54v2.39H30.64v-2.4z"/><path d="M82.243 108.22v-1.39l2.37-2.392c.75-.78 1.21-1.276 1.387-1.483.19-.27.343-.534.455-.79.096-.24.144-.48.144-.718 0-.383-.11-.67-.32-.86-.19-.177-.47-.264-.84-.264-.39 0-.74.08-1.08.24-.34.174-.7.414-1.08.717l-1.08-1.292c.43-.367.81-.646 1.14-.838.4-.19.73-.31 1-.36.35-.095.75-.143 1.22-.143.55 0 1.07.112 1.55.335.48.224.83.52 1.05.886.26.367.382.813.382 1.34 0 .447-.08.854-.24 1.22-.143.367-.38.758-.717 1.172-.22.303-.78.87-1.67 1.7l-1.22 1.147v.096h4.113v1.675h-6.6zm5.91 6.34c-.4.447-.917.742-1.555.885v.048c.78.096 1.372.335 1.77.718.416.39.623.9.623 1.54 0 .94-.34 1.68-1.02 2.2-.67.53-1.64.79-2.92.79-1.08 0-2.02-.17-2.82-.52v-1.77c.43.21.85.37 1.25.48.48.13.94.19 1.37.19.67 0 1.17-.12 1.51-.35.32-.24.48-.61.48-1.12 0-.46-.18-.79-.55-.98-.38-.19-.98-.29-1.79-.29h-.74v-1.58h.74c.77 0 1.33-.09 1.68-.28.35-.19.53-.53.53-1.03 0-.73-.46-1.1-1.38-1.1-.33 0-.66.06-.98.17-.3.08-.67.27-1.1.55l-.952-1.43c.876-.64 1.937-.96 3.18-.96 1.005 0 1.8.21 2.39.624.59.4.887.97.887 1.7 0 .59-.182 1.11-.55 1.56zm-3.158-18.185V89.94l.048-1.006c-.287.287-.526.51-.718.67l-1.1.885-.958-1.22 3.086-2.47h1.65v9.57h-2.008zm6.795-2.393h21.534V91.59H91.79v2.392zm0 11.964h21.534v-2.393H91.79v2.393zm0 11.963h21.534v-2.4H91.79v2.39z"/><path d="M142.77 106.544v-5.98h26.92v5.98h-26.92z"/><path d="M211.91 95.13c-1.595 1.708-2.393 4.204-2.393 7.49 0 3.015.534 5.583 1.604 7.704.48.99 1.16 1.883 2.04 2.68.88.798 1.99 1.635 3.33 2.512v4.785h-14.36v-4.78h8.76c-2.36-1.69-4.03-3.57-5.02-5.64-1.16-2.42-1.74-5.08-1.74-7.96 0-4.21 1.32-7.56 3.95-10.05 2.63-2.5 6.24-3.75 10.82-3.75 4.57 0 8.17 1.24 10.82 3.71 2.63 2.47 3.95 5.84 3.95 10.1 0 2.9-.59 5.58-1.77 8.02-1.05 2.13-2.74 3.99-5.07 5.6h8.83v4.79H221.3v-4.78c1.276-.81 2.35-1.61 3.22-2.4.87-.79 1.565-1.676 2.09-2.665 1.1-2.155 1.65-4.76 1.65-7.826 0-3.27-.796-5.766-2.39-7.49-1.61-1.72-3.934-2.58-6.964-2.58-3.06 0-5.386.86-6.965 2.585z"/><path d="M45.69 148.033l2.633 2.655c.973.958 1.46 2.13 1.46 3.518v5.072c0 1.388-.487 2.56-1.46 3.518L32.46 178.66c-.957.973-2.13 1.46-3.517 1.46-1.388 0-2.56-.487-3.518-1.46l-2.656-2.633-2.64-2.656c-.98-.95-1.46-2.12-1.46-3.51v-5.07c0-1.39.48-2.57 1.46-3.54L36 145.4c.957-.972 2.13-1.46 3.518-1.46 1.372 0 2.544.488 3.517 1.46l2.656 2.633zm-14.857 23.21l15.36-15.362c.463-.46.695-1.02.695-1.69s-.23-1.24-.694-1.72l-5.12-5.12c-.463-.46-1.037-.69-1.723-.69-.67 0-1.23.23-1.69.7L22.3 162.71c-.463.48-.694 1.052-.694 1.722s.23 1.236.694 1.7l5.12 5.12c.463.46 1.033.69 1.71.69s1.248-.23 1.71-.69z"/><path d="M109.615 146.62h3.71c.653 0 1.215.236 1.686.707s.71 1.033.71 1.687v28.713c0 .67-.23 1.236-.7 1.698-.47.463-1.03.694-1.68.694h-33.5c-.65 0-1.21-.24-1.68-.7-.47-.46-.7-1.03-.7-1.7v-28.71c0-.66.24-1.22.71-1.69s1.04-.71 1.69-.71h3.71l-1.31 1.51v5.67h28.71v-5.67l-1.31-1.51zm-7.345-4.784l6.27 7.178v2.393H84.61v-2.393l6.317-7.178h11.34zm3.876 21.534v-4.785H87.004v4.785h7.178v11.964h4.785V163.37h7.18zm-11.258-15.05c.47.463 1.033.693 1.687.693.654 0 1.216-.23 1.687-.693.47-.463.706-1.03.706-1.7 0-.652-.235-1.215-.706-1.686-.47-.47-1.033-.706-1.687-.706-.654 0-1.216.235-1.687.706-.47.47-.706 1.033-.706 1.687 0 .67.236 1.24.706 1.7z"/><path d="M175.023 161.217c1.26 2.967 1.89 6.077 1.89 9.33 0 3.256-.63 6.366-1.89 9.333l-6.65-2.8c.876-2.105 1.315-4.283 1.315-6.532 0-2.265-.44-4.434-1.316-6.508-.83-1.994-2.026-3.772-3.59-5.336-1.547-1.547-3.317-2.743-5.31-3.59-2.106-.876-4.284-1.314-6.533-1.314v7.178l-14.36-10.768 14.35-10.767v7.13c3.25 0 6.36.63 9.33 1.89 2.9 1.23 5.44 2.943 7.61 5.146 2.2 2.16 3.91 4.7 5.14 7.6z"/><path d="M201.574 161.217c1.228-2.903 2.942-5.44 5.145-7.608 2.16-2.21 4.7-3.92 7.6-5.15 2.96-1.26 6.07-1.89 9.33-1.89v-7.13L238 150.2l-14.356 10.765v-7.17c-2.25 0-4.426.437-6.53 1.314-1.98.84-3.75 2.04-5.314 3.59-1.56 1.56-2.76 3.34-3.59 5.33-.874 2.07-1.312 4.24-1.312 6.5 0 2.25.438 4.42 1.315 6.53l-6.65 2.8c-1.26-2.97-1.89-6.08-1.89-9.34s.63-6.37 1.89-9.33z"/><path d="M43.825 232.914c-2.568 1.49-5.368 2.237-8.398 2.237-2.28 0-4.455-.44-6.52-1.32-2.066-.88-3.844-2.07-5.335-3.56-1.492-1.49-2.68-3.27-3.565-5.33-.885-2.06-1.328-4.24-1.328-6.52s.44-4.45 1.32-6.52 2.07-3.84 3.56-5.33c1.49-1.49 3.27-2.68 5.33-3.56 2.06-.88 4.24-1.33 6.52-1.33 3.03 0 5.83.75 8.4 2.24 2.57 1.49 4.6 3.53 6.1 6.1s2.25 5.38 2.25 8.41c0 3.03-.75 5.84-2.25 8.41s-3.53 4.61-6.1 6.1zM37.1 221.106c0-.56.12-1.014.36-1.364.255-.367.82-.87 1.7-1.508 1.34-.973 2.225-1.818 2.655-2.536.462-.718.694-1.603.694-2.655 0-1.547-.57-2.783-1.7-3.71-1.15-.924-2.68-1.387-4.6-1.387-2.33 0-4.54.59-6.63 1.77l1.53 3.064c1.78-.91 3.38-1.363 4.78-1.363.81 0 1.44.15 1.89.454.44.34.67.8.67 1.39 0 .58-.16 1.07-.48 1.49-.32.45-.97 1.02-1.94 1.7-1.06.8-1.76 1.51-2.11 2.13-.39.67-.58 1.46-.58 2.35v1.03h3.73v-.83zm-1.698 8.015c.766 0 1.364-.21 1.794-.64.43-.4.646-.97.646-1.72 0-.76-.215-1.35-.646-1.77-.447-.41-1.045-.62-1.794-.62-.813 0-1.428.2-1.842.6-.415.4-.622 1-.622 1.8 0 .75.215 1.33.646 1.75.446.42 1.053.63 1.818.63z"/><path d="M87.004 201.653l-2.99 2.99 5.383 8.974-8.973-5.384-2.99 2.99v-9.57h9.57zm-9.57 23.927l2.99 2.99 8.974-5.383-5.384 8.973 2.99 2.99h-9.57v-9.57zm11.963-2.392v-9.57h14.356v9.57H89.397zm16.75-21.535h9.57v9.57l-2.99-2.99-8.974 5.384 5.383-8.973-2.99-2.99zm0 33.498l2.99-2.99-5.383-8.97 8.973 5.39 2.99-2.99v9.57h-9.57z"/></g></svg>