<?xml version="1.0" encoding="utf-8"?>
<!-- Generator: Adobe Illustrator 14.0.0, SVG Export Plug-In . SVG Version: 6.00 Build 43363)  -->
<!DOCTYPE svg PUBLIC "-//W3C//DTD SVG 1.1//EN" "http://www.w3.org/Graphics/SVG/1.1/DTD/svg11.dtd">
<svg version="1.1" id="Layer_1" xmlns="http://www.w3.org/2000/svg" xmlns:xlink="http://www.w3.org/1999/xlink" x="0px" y="0px"
	 width="256px" height="256px" viewBox="0 0 256 256" enable-background="new 0 0 256 256" xml:space="preserve">
<linearGradient id="SVGID_1_" gradientUnits="userSpaceOnUse" x1="264.5723" y1="-180.0854" x2="316.09" y2="112.0861" gradientTransform="matrix(1 0 0 -1 -162 94)">
	<stop  offset="0" style="stop-color:#4CA6CF"/>
	<stop  offset="0.1697" style="stop-color:#3F97BF"/>
	<stop  offset="0.445" style="stop-color:#2E84AB"/>
	<stop  offset="0.7217" style="stop-color:#24799F"/>
	<stop  offset="1" style="stop-color:#21759B"/>
</linearGradient>
<rect fill="url(#SVGID_1_)" width="256.661" height="256"/>
<path d="M68.876,30.424v19.833h-4.251c-5.384,0-9.916-4.532-9.916-9.917c0-5.384,4.532-9.917,9.916-9.917H68.876 M91.543,24.757
	H64.625c-8.499,0-15.583,7.083-15.583,15.583s7.083,15.583,15.583,15.583h4.251v19.833h5.666V30.424h5.667v45.333h5.667V30.424
	h5.667V24.757z"/>
<g>
	<g>
		<path d="M90.126,109.969v39.666H50.46v-39.666H90.126 M90.126,104.302H50.46c-3.116,0-5.667,2.551-5.667,5.667v39.666
			c0,3.116,2.551,5.667,5.667,5.667h39.666c3.116,0,5.667-2.551,5.667-5.667v-39.666C95.793,106.853,93.242,104.302,90.126,104.302z
			"/>
		<path d="M76.358,129.403l-8.5,10.968l-6.065-7.338l-8.5,10.936h34L76.358,129.403z"/>
	</g>
</g>
<path d="M200.438,146.802h-14.847l5.666-11.333h-6.743v-22.667h22.667v20.514L200.438,146.802z M194.771,141.135h2.152l4.59-9.181
	v-13.485h-11.333v11.333h10.257L194.771,141.135z M172.104,146.802h-14.848l5.667-11.333h-6.743v-22.667h22.667v20.514
	L172.104,146.802z M166.438,141.135h2.153l4.59-9.181v-13.485h-11.333v11.333h10.257L166.438,141.135z"/>
<path d="M191.488,24.757v20.4h-19.615v-20.4h-9.808v51h9.808v-20.4h19.615v20.4h9.808v-51"/>
<path d="M56.121,195.301c-1.054,1.056-2.325,1.583-3.812,1.583c-1.487,0-2.759-0.527-3.813-1.583
	c-1.056-1.056-1.583-2.325-1.583-3.813c0-1.485,0.527-2.757,1.583-3.812c1.054-1.056,2.325-1.583,3.813-1.583
	c1.486,0,2.758,0.527,3.812,1.583c1.056,1.055,1.583,2.326,1.583,3.812C57.704,192.976,57.177,194.245,56.121,195.301z
	 M56.121,213.285c-1.054,1.054-2.325,1.582-3.812,1.582c-1.487,0-2.759-0.528-3.813-1.582c-1.056-1.056-1.583-2.325-1.583-3.814
	c0-1.485,0.527-2.757,1.583-3.811c1.054-1.056,2.325-1.582,3.813-1.582c1.486,0,2.758,0.526,3.812,1.582
	c1.056,1.054,1.583,2.325,1.583,3.811C57.704,210.96,57.177,212.229,56.121,213.285z M56.121,231.267
	c-1.054,1.056-2.325,1.583-3.812,1.583c-1.487,0-2.759-0.527-3.813-1.583c-1.056-1.054-1.583-2.325-1.583-3.812
	c0-1.487,0.527-2.757,1.583-3.813c1.054-1.054,2.325-1.582,3.813-1.582c1.486,0,2.758,0.528,3.812,1.582
	c1.056,1.056,1.583,2.325,1.583,3.813C57.704,228.941,57.177,230.213,56.121,231.267z M61.3,189.69h32.371v3.597H61.3V189.69z
	 M61.3,207.674h32.371v3.597H61.3V207.674z M61.3,225.656h32.371v3.597H61.3V225.656z"/>
<path d="M158.338,216.161v-2.086l3.561-3.597c1.127-1.174,1.823-1.917,2.087-2.229c0.288-0.406,0.514-0.803,0.683-1.188
	c0.144-0.358,0.216-0.72,0.216-1.077c0-0.576-0.155-1.008-0.467-1.295c-0.288-0.265-0.708-0.396-1.26-0.396
	c-0.575,0-1.115,0.12-1.617,0.359c-0.505,0.263-1.044,0.624-1.619,1.079l-1.619-1.942c0.648-0.552,1.224-0.972,1.727-1.259
	c0.599-0.288,1.104-0.469,1.512-0.539c0.525-0.144,1.138-0.218,1.833-0.218c0.839,0,1.619,0.169,2.339,0.506
	c0.719,0.334,1.246,0.777,1.582,1.329c0.384,0.553,0.575,1.225,0.575,2.015c0,0.672-0.12,1.283-0.36,1.835
	c-0.215,0.552-0.576,1.139-1.078,1.762c-0.337,0.456-1.176,1.308-2.519,2.554l-1.834,1.727v0.144h6.187v2.518H158.338z
	 M167.221,225.692c-0.599,0.673-1.378,1.116-2.337,1.33v0.073c1.175,0.145,2.061,0.502,2.661,1.078
	c0.624,0.575,0.936,1.344,0.936,2.302c0,1.415-0.516,2.519-1.548,3.309c-1.007,0.792-2.469,1.188-4.386,1.188
	c-1.633,0-3.046-0.263-4.245-0.791v-2.662c0.648,0.313,1.271,0.552,1.87,0.72c0.719,0.192,1.403,0.287,2.051,0.287
	c1.007,0,1.763-0.18,2.265-0.538c0.48-0.361,0.72-0.924,0.72-1.691c0-0.695-0.276-1.186-0.827-1.474
	c-0.575-0.288-1.475-0.432-2.696-0.432h-1.115v-2.375h1.115c1.151,0,1.989-0.144,2.517-0.432c0.528-0.288,0.792-0.802,0.792-1.546
	c0-1.103-0.695-1.654-2.087-1.654c-0.502,0-0.995,0.084-1.474,0.253c-0.455,0.12-1.008,0.395-1.654,0.826l-1.439-2.158
	c1.318-0.958,2.914-1.439,4.784-1.439c1.509,0,2.709,0.313,3.597,0.937c0.887,0.599,1.33,1.45,1.33,2.554
	C168.049,224.242,167.772,225.021,167.221,225.692z M162.474,198.358v-9.676l0.073-1.509c-0.432,0.432-0.793,0.767-1.08,1.007
	l-1.653,1.33l-1.438-1.835l4.639-3.705h2.48v14.388H162.474z M172.688,194.762h32.37v-3.597h-32.37V194.762z M172.688,212.745h32.37
	v-3.597h-32.37V212.745z M172.688,230.728h32.37v-3.597h-32.37V230.728z"/>
<linearGradient id="SVGID_2_" gradientUnits="userSpaceOnUse" x1="48.0425" y1="49.2568" x2="90.543" y2="49.2568">
	<stop  offset="0" style="stop-color:#4CA6CF"/>
	<stop  offset="0.1697" style="stop-color:#3F97BF"/>
	<stop  offset="0.445" style="stop-color:#2E84AB"/>
	<stop  offset="0.7217" style="stop-color:#24799F"/>
	<stop  offset="1" style="stop-color:#21759B"/>
</linearGradient>
<path fill="url(#SVGID_2_)" d="M67.876,29.424v19.833h-4.251c-5.384,0-9.916-4.532-9.916-9.917c0-5.384,4.532-9.917,9.916-9.917
	H67.876 M90.543,23.757H63.625c-8.499,0-15.583,7.083-15.583,15.583s7.083,15.583,15.583,15.583h4.251v19.833h5.666V29.424h5.667
	v45.333h5.667V29.424h5.667V23.757z"/>
<g>
	<linearGradient id="SVGID_3_" gradientUnits="userSpaceOnUse" x1="43.793" y1="128.8018" x2="94.793" y2="128.8018">
		<stop  offset="0" style="stop-color:#4CA6CF"/>
		<stop  offset="0.1697" style="stop-color:#3F97BF"/>
		<stop  offset="0.445" style="stop-color:#2E84AB"/>
		<stop  offset="0.7217" style="stop-color:#24799F"/>
		<stop  offset="1" style="stop-color:#21759B"/>
	</linearGradient>
	<path fill="url(#SVGID_3_)" d="M89.126,108.969v39.666H49.46v-39.666H89.126 M89.126,103.302H49.46
		c-3.116,0-5.667,2.551-5.667,5.667v39.666c0,3.116,2.551,5.667,5.667,5.667h39.666c3.116,0,5.667-2.551,5.667-5.667v-39.666
		C94.793,105.853,92.242,103.302,89.126,103.302z"/>
	<linearGradient id="SVGID_4_" gradientUnits="userSpaceOnUse" x1="52.293" y1="135.6855" x2="86.293" y2="135.6855">
		<stop  offset="0" style="stop-color:#4CA6CF"/>
		<stop  offset="0.1697" style="stop-color:#3F97BF"/>
		<stop  offset="0.445" style="stop-color:#2E84AB"/>
		<stop  offset="0.7217" style="stop-color:#24799F"/>
		<stop  offset="1" style="stop-color:#21759B"/>
	</linearGradient>
	<path fill="url(#SVGID_4_)" d="M75.358,128.403l-8.5,10.968l-6.065-7.338l-8.5,10.936h34L75.358,128.403z"/>
</g>
<linearGradient id="SVGID_5_" gradientUnits="userSpaceOnUse" x1="155.1807" y1="128.8018" x2="206.1807" y2="128.8018">
	<stop  offset="0" style="stop-color:#4CA6CF"/>
	<stop  offset="0.1697" style="stop-color:#3F97BF"/>
	<stop  offset="0.445" style="stop-color:#2E84AB"/>
	<stop  offset="0.7217" style="stop-color:#24799F"/>
	<stop  offset="1" style="stop-color:#21759B"/>
</linearGradient>
<path fill="url(#SVGID_5_)" d="M199.438,145.802h-14.847l5.666-11.333h-6.743v-22.667h22.667v20.514L199.438,145.802z
	 M193.771,140.135h2.152l4.59-9.181v-13.485h-11.333v11.333h10.257L193.771,140.135z M171.104,145.802h-14.848l5.667-11.333h-6.743
	v-22.667h22.667v20.514L171.104,145.802z M165.438,140.135h2.153l4.59-9.181v-13.485h-11.333v11.333h10.257L165.438,140.135z"/>
<linearGradient id="SVGID_6_" gradientUnits="userSpaceOnUse" x1="161.0654" y1="49.2568" x2="200.2959" y2="49.2568">
	<stop  offset="0" style="stop-color:#4CA6CF"/>
	<stop  offset="0.1697" style="stop-color:#3F97BF"/>
	<stop  offset="0.445" style="stop-color:#2E84AB"/>
	<stop  offset="0.7217" style="stop-color:#24799F"/>
	<stop  offset="1" style="stop-color:#21759B"/>
</linearGradient>
<path fill="url(#SVGID_6_)" d="M190.488,23.757v20.4h-19.615v-20.4h-9.808v51h9.808v-20.4h19.615v20.4h9.808v-51"/>
<linearGradient id="SVGID_7_" gradientUnits="userSpaceOnUse" x1="45.9141" y1="208.4717" x2="92.6709" y2="208.4717">
	<stop  offset="0" style="stop-color:#4CA6CF"/>
	<stop  offset="0.1697" style="stop-color:#3F97BF"/>
	<stop  offset="0.445" style="stop-color:#2E84AB"/>
	<stop  offset="0.7217" style="stop-color:#24799F"/>
	<stop  offset="1" style="stop-color:#21759B"/>
</linearGradient>
<path fill="url(#SVGID_7_)" d="M55.121,194.301c-1.054,1.056-2.325,1.583-3.812,1.583c-1.487,0-2.759-0.527-3.813-1.583
	c-1.056-1.056-1.583-2.325-1.583-3.813c0-1.485,0.527-2.757,1.583-3.812c1.054-1.056,2.325-1.583,3.813-1.583
	c1.486,0,2.758,0.527,3.812,1.583c1.056,1.055,1.583,2.326,1.583,3.812C56.704,191.976,56.177,193.245,55.121,194.301z
	 M55.121,212.285c-1.054,1.054-2.325,1.582-3.812,1.582c-1.487,0-2.759-0.528-3.813-1.582c-1.056-1.056-1.583-2.325-1.583-3.814
	c0-1.485,0.527-2.757,1.583-3.811c1.054-1.056,2.325-1.582,3.813-1.582c1.486,0,2.758,0.526,3.812,1.582
	c1.056,1.054,1.583,2.325,1.583,3.811C56.704,209.96,56.177,211.229,55.121,212.285z M55.121,230.267
	c-1.054,1.056-2.325,1.583-3.812,1.583c-1.487,0-2.759-0.527-3.813-1.583c-1.056-1.054-1.583-2.325-1.583-3.812
	c0-1.487,0.527-2.757,1.583-3.813c1.054-1.054,2.325-1.582,3.813-1.582c1.486,0,2.758,0.528,3.812,1.582
	c1.056,1.056,1.583,2.325,1.583,3.813C56.704,227.941,56.177,229.213,55.121,230.267z M60.3,188.69h32.371v3.597H60.3V188.69z
	 M60.3,206.674h32.371v3.597H60.3V206.674z M60.3,224.656h32.371v3.597H60.3V224.656z"/>
<linearGradient id="SVGID_8_" gradientUnits="userSpaceOnUse" x1="157.3018" y1="208.4707" x2="204.0586" y2="208.4707">
	<stop  offset="0" style="stop-color:#4CA6CF"/>
	<stop  offset="0.1697" style="stop-color:#3F97BF"/>
	<stop  offset="0.445" style="stop-color:#2E84AB"/>
	<stop  offset="0.7217" style="stop-color:#24799F"/>
	<stop  offset="1" style="stop-color:#21759B"/>
</linearGradient>
<path fill="url(#SVGID_8_)" d="M157.338,215.161v-2.086l3.561-3.597c1.127-1.174,1.823-1.917,2.087-2.229
	c0.288-0.406,0.514-0.803,0.683-1.188c0.144-0.358,0.216-0.72,0.216-1.077c0-0.576-0.155-1.008-0.467-1.295
	c-0.288-0.265-0.708-0.396-1.26-0.396c-0.575,0-1.115,0.12-1.617,0.359c-0.505,0.263-1.044,0.624-1.619,1.079l-1.619-1.942
	c0.648-0.552,1.224-0.972,1.727-1.259c0.599-0.288,1.104-0.469,1.512-0.539c0.525-0.144,1.138-0.218,1.833-0.218
	c0.839,0,1.619,0.169,2.339,0.506c0.719,0.334,1.246,0.777,1.582,1.329c0.384,0.553,0.575,1.225,0.575,2.015
	c0,0.672-0.12,1.283-0.36,1.835c-0.215,0.552-0.576,1.139-1.078,1.762c-0.337,0.456-1.176,1.308-2.519,2.554l-1.834,1.727v0.144
	h6.187v2.518H157.338z M166.221,224.692c-0.599,0.673-1.378,1.116-2.337,1.33v0.073c1.175,0.145,2.061,0.502,2.661,1.078
	c0.624,0.575,0.936,1.344,0.936,2.302c0,1.415-0.516,2.519-1.548,3.309c-1.007,0.792-2.469,1.188-4.386,1.188
	c-1.633,0-3.046-0.263-4.245-0.791v-2.662c0.648,0.313,1.271,0.552,1.87,0.72c0.719,0.192,1.403,0.287,2.051,0.287
	c1.007,0,1.763-0.18,2.265-0.538c0.48-0.361,0.72-0.924,0.72-1.691c0-0.695-0.276-1.186-0.827-1.474
	c-0.575-0.288-1.475-0.432-2.696-0.432h-1.115v-2.375h1.115c1.151,0,1.989-0.144,2.517-0.432c0.528-0.288,0.792-0.802,0.792-1.546
	c0-1.103-0.695-1.654-2.087-1.654c-0.502,0-0.995,0.084-1.474,0.253c-0.455,0.12-1.008,0.395-1.654,0.826l-1.439-2.158
	c1.318-0.958,2.914-1.439,4.784-1.439c1.509,0,2.709,0.313,3.597,0.937c0.887,0.599,1.33,1.45,1.33,2.554
	C167.049,223.242,166.772,224.021,166.221,224.692z M161.474,197.358v-9.676l0.073-1.509c-0.432,0.432-0.793,0.767-1.08,1.007
	l-1.653,1.33l-1.438-1.835l4.639-3.705h2.48v14.388H161.474z M171.688,193.762h32.37v-3.597h-32.37V193.762z M171.688,211.745h32.37
	v-3.597h-32.37V211.745z M171.688,229.728h32.37v-3.597h-32.37V229.728z"/>
<path fill="#FFFFFF" d="M66.876,28.424v19.833h-4.251c-5.384,0-9.916-4.532-9.916-9.917c0-5.384,4.532-9.917,9.916-9.917H66.876
	 M89.543,22.757H62.625c-8.499,0-15.583,7.083-15.583,15.583s7.083,15.583,15.583,15.583h4.251v19.833h5.666V28.424h5.667v45.333
	h5.667V28.424h5.667V22.757z"/>
<g>
	<path fill="#FFFFFF" d="M88.126,107.969v39.666H48.46v-39.666H88.126 M88.126,102.302H48.46c-3.116,0-5.667,2.551-5.667,5.667
		v39.666c0,3.116,2.551,5.667,5.667,5.667h39.666c3.116,0,5.667-2.551,5.667-5.667v-39.666
		C93.793,104.853,91.242,102.302,88.126,102.302z"/>
	<path fill="#FFFFFF" d="M74.358,127.403l-8.5,10.968l-6.065-7.338l-8.5,10.936h34L74.358,127.403z"/>
</g>
<path fill="#FFFFFF" d="M198.438,144.802h-14.847l5.666-11.333h-6.743v-22.667h22.667v20.514L198.438,144.802z M192.771,139.135
	h2.152l4.59-9.181v-13.485h-11.333v11.333h10.257L192.771,139.135z M170.104,144.802h-14.848l5.667-11.333h-6.743v-22.667h22.667
	v20.514L170.104,144.802z M164.438,139.135h2.153l4.59-9.181v-13.485h-11.333v11.333h10.257L164.438,139.135z"/>
<path fill="#FFFFFF" d="M189.488,22.757v20.4h-19.615v-20.4h-9.808v51h9.808v-20.4h19.615v20.4h9.808v-51"/>
<path fill="#FFFFFF" d="M54.121,193.301c-1.054,1.056-2.325,1.583-3.812,1.583c-1.487,0-2.759-0.527-3.813-1.583
	c-1.056-1.056-1.583-2.325-1.583-3.813c0-1.485,0.527-2.757,1.583-3.812c1.054-1.056,2.325-1.583,3.813-1.583
	c1.486,0,2.758,0.527,3.812,1.583c1.056,1.055,1.583,2.326,1.583,3.812C55.704,190.976,55.177,192.245,54.121,193.301z
	 M54.121,211.285c-1.054,1.054-2.325,1.582-3.812,1.582c-1.487,0-2.759-0.528-3.813-1.582c-1.056-1.056-1.583-2.325-1.583-3.814
	c0-1.485,0.527-2.757,1.583-3.811c1.054-1.056,2.325-1.582,3.813-1.582c1.486,0,2.758,0.526,3.812,1.582
	c1.056,1.054,1.583,2.325,1.583,3.811C55.704,208.96,55.177,210.229,54.121,211.285z M54.121,229.267
	c-1.054,1.056-2.325,1.583-3.812,1.583c-1.487,0-2.759-0.527-3.813-1.583c-1.056-1.054-1.583-2.325-1.583-3.812
	c0-1.487,0.527-2.757,1.583-3.813c1.054-1.054,2.325-1.582,3.813-1.582c1.486,0,2.758,0.528,3.812,1.582
	c1.056,1.056,1.583,2.325,1.583,3.813C55.704,226.941,55.177,228.213,54.121,229.267z M59.3,187.69h32.371v3.597H59.3V187.69z
	 M59.3,205.674h32.371v3.597H59.3V205.674z M59.3,223.656h32.371v3.597H59.3V223.656z"/>
<path fill="#FFFFFF" d="M156.338,214.161v-2.086l3.561-3.597c1.127-1.174,1.823-1.917,2.087-2.229
	c0.288-0.406,0.514-0.803,0.683-1.188c0.144-0.358,0.216-0.72,0.216-1.077c0-0.576-0.155-1.008-0.467-1.295
	c-0.288-0.265-0.708-0.396-1.26-0.396c-0.575,0-1.115,0.12-1.617,0.359c-0.505,0.263-1.044,0.624-1.619,1.079l-1.619-1.942
	c0.648-0.552,1.224-0.972,1.727-1.259c0.599-0.288,1.104-0.469,1.512-0.539c0.525-0.144,1.138-0.218,1.833-0.218
	c0.839,0,1.619,0.169,2.339,0.506c0.719,0.334,1.246,0.777,1.582,1.329c0.384,0.553,0.575,1.225,0.575,2.015
	c0,0.672-0.12,1.283-0.36,1.835c-0.215,0.552-0.576,1.139-1.078,1.762c-0.337,0.456-1.176,1.308-2.519,2.554l-1.834,1.727v0.144
	h6.187v2.518H156.338z M165.221,223.692c-0.599,0.673-1.378,1.116-2.337,1.33v0.073c1.175,0.145,2.061,0.502,2.661,1.078
	c0.624,0.575,0.936,1.344,0.936,2.302c0,1.415-0.516,2.519-1.548,3.309c-1.007,0.792-2.469,1.188-4.386,1.188
	c-1.633,0-3.046-0.263-4.245-0.791v-2.662c0.648,0.313,1.271,0.552,1.87,0.72c0.719,0.192,1.403,0.287,2.051,0.287
	c1.007,0,1.763-0.18,2.265-0.538c0.48-0.361,0.72-0.924,0.72-1.691c0-0.695-0.276-1.186-0.827-1.474
	c-0.575-0.288-1.475-0.432-2.696-0.432h-1.115v-2.375h1.115c1.151,0,1.989-0.144,2.517-0.432c0.528-0.288,0.792-0.802,0.792-1.546
	c0-1.103-0.695-1.654-2.087-1.654c-0.502,0-0.995,0.084-1.474,0.253c-0.455,0.12-1.008,0.395-1.654,0.826l-1.439-2.158
	c1.318-0.958,2.914-1.439,4.784-1.439c1.509,0,2.709,0.313,3.597,0.937c0.887,0.599,1.33,1.45,1.33,2.554
	C166.049,222.242,165.772,223.021,165.221,223.692z M160.474,196.358v-9.676l0.073-1.509c-0.432,0.432-0.793,0.767-1.08,1.007
	l-1.653,1.33l-1.438-1.835l4.639-3.705h2.48v14.388H160.474z M170.688,192.762h32.37v-3.597h-32.37V192.762z M170.688,210.745h32.37
	v-3.597h-32.37V210.745z M170.688,228.728h32.37v-3.597h-32.37V228.728z"/>
</svg>
